<?xml version="1.0" encoding="UTF-8" standalone="no"?>
<!-- Created with Inkscape (http://www.inkscape.org/) -->

<svg
   xmlns:dc="http://purl.org/dc/elements/1.1/"
   xmlns:cc="http://creativecommons.org/ns#"
   xmlns:rdf="http://www.w3.org/1999/02/22-rdf-syntax-ns#"
   xmlns:svg="http://www.w3.org/2000/svg"
   xmlns="http://www.w3.org/2000/svg"
   xmlns:sodipodi="http://sodipodi.sourceforge.net/DTD/sodipodi-0.dtd"
   xmlns:inkscape="http://www.inkscape.org/namespaces/inkscape"
   width="760"
   height="500"
   id="svg2"
   version="1.1"
   inkscape:version="0.48.5 r10040"
   sodipodi:docname="drawing.pdf"
   inkscape:export-filename="/home/ionicabizau/Desktop/bat.png"
   inkscape:export-xdpi="90"
   inkscape:export-ydpi="90">
  <defs
     id="defs4" />
  <sodipodi:namedview
     id="base"
     pagecolor="#ffffff"
     bordercolor="#666666"
     borderopacity="1.0"
     inkscape:pageopacity="0.0"
     inkscape:pageshadow="2"
     inkscape:zoom="0.98994949"
     inkscape:cx="367.02524"
     inkscape:cy="318.10801"
     inkscape:document-units="px"
     inkscape:current-layer="layer1"
     showgrid="false"
     inkscape:window-width="1920"
     inkscape:window-height="1056"
     inkscape:window-x="0"
     inkscape:window-y="24"
     inkscape:window-maximized="1" />
  <metadata
     id="metadata7">
    <rdf:RDF>
      <cc:Work
         rdf:about="">
        <dc:format>image/svg+xml</dc:format>
        <dc:type
           rdf:resource="http://purl.org/dc/dcmitype/StillImage" />
        <dc:title></dc:title>
      </cc:Work>
    </rdf:RDF>
  </metadata>
  <g
     inkscape:label="Layer 1"
     inkscape:groupmode="layer"
     id="layer1"
     transform="translate(0,-552.36218)">
    <path
       style="fill:#c0392b;stroke:none;stroke-width:0.67800000000000005;stroke-linecap:butt;stroke-linejoin:miter;stroke-opacity:1;stroke-miterlimit:4;stroke-dasharray:none"
       d="M 325.79915,726.66646 285.63051,638.04513 180.12172,739.71942 z"
       id="path4103"
       inkscape:connector-curvature="0" />
    <path
       inkscape:connector-curvature="0"
       id="path4873"
       d="m 408.12172,726.66646 40.16864,-88.62133 105.50879,101.67429 z"
       style="fill:#27ae60;stroke:none;fill-opacity:1" />
    <g
       id="g3016"
       transform="translate(-7.0710679,3.0304576)">
      <path
         inkscape:connector-curvature="0"
         id="path3961"
         d="m 54.285714,602.07647 0,278.57143"
         style="fill:none;stroke:#2c3e50;stroke-width:13.22399998;stroke-linecap:butt;stroke-linejoin:miter;stroke-miterlimit:4;stroke-opacity:1;stroke-dasharray:none" />
      <path
         inkscape:connector-curvature="0"
         id="path3963"
         d="m 55.714286,880.6479 125.714284,-70"
         style="fill:none;stroke:#2c3e50;stroke-width:13.22399998;stroke-linecap:butt;stroke-linejoin:miter;stroke-miterlimit:4;stroke-opacity:1;stroke-dasharray:none" />
      <path
         inkscape:connector-curvature="0"
         id="path3965"
         d="M 55.714286,732.07647 184.9281,806.6781"
         style="fill:none;stroke:#2c3e50;stroke-width:13.22399998;stroke-linecap:butt;stroke-linejoin:miter;stroke-miterlimit:4;stroke-opacity:1;stroke-dasharray:none" />
      <path
         inkscape:connector-curvature="0"
         id="path3967"
         d="M 54.285714,599.21933 182.85714,652.07647"
         style="fill:none;stroke:#2c3e50;stroke-width:13.22399998;stroke-linecap:butt;stroke-linejoin:miter;stroke-miterlimit:4;stroke-opacity:1;stroke-dasharray:none" />
      <path
         inkscape:connector-curvature="0"
         id="path3969"
         d="M 57.142857,729.21933 185.71429,654.93361"
         style="fill:none;stroke:#2c3e50;stroke-width:13.22399998;stroke-linecap:butt;stroke-linejoin:miter;stroke-miterlimit:4;stroke-opacity:1;stroke-dasharray:none" />
      <path
         transform="matrix(0.82044986,0,0,0.82044986,8.432184,431.75942)"
         d="m 94.285713,208.07646 c 0,20.51344 -16.629423,37.14286 -37.142856,37.14286 C 36.629423,245.21932 20,228.5899 20,208.07646 c 0,-20.51343 16.629423,-37.14285 37.142857,-37.14285 20.513433,0 37.142856,16.62942 37.142856,37.14285 z"
         sodipodi:ry="37.142857"
         sodipodi:rx="37.142857"
         sodipodi:cy="208.07646"
         sodipodi:cx="57.142857"
         id="path3871"
         style="fill:#27ae60;fill-opacity:1;stroke:#2c3e50;stroke-width:16.11855698;stroke-miterlimit:4;stroke-opacity:1;stroke-dasharray:none"
         sodipodi:type="arc" />
      <path
         transform="matrix(0.82044986,0,0,0.82044986,8.432184,564.21731)"
         d="m 94.285713,208.07646 c 0,20.51344 -16.629423,37.14286 -37.142856,37.14286 C 36.629423,245.21932 20,228.5899 20,208.07646 c 0,-20.51343 16.629423,-37.14285 37.142857,-37.14285 20.513433,0 37.142856,16.62942 37.142856,37.14285 z"
         sodipodi:ry="37.142857"
         sodipodi:rx="37.142857"
         sodipodi:cy="208.07646"
         sodipodi:cx="57.142857"
         id="path3871-4"
         style="fill:#27ae60;fill-opacity:1;stroke:#2c3e50;stroke-width:16.11855698;stroke-miterlimit:4;stroke-opacity:1;stroke-dasharray:none"
         sodipodi:type="arc" />
      <path
         transform="matrix(0.82044986,0,0,0.82044986,8.432184,708.04514)"
         d="m 94.285713,208.07646 c 0,20.51344 -16.629423,37.14286 -37.142856,37.14286 C 36.629423,245.21932 20,228.5899 20,208.07646 c 0,-20.51343 16.629423,-37.14285 37.142857,-37.14285 20.513433,0 37.142856,16.62942 37.142856,37.14285 z"
         sodipodi:ry="37.142857"
         sodipodi:rx="37.142857"
         sodipodi:cy="208.07646"
         sodipodi:cx="57.142857"
         id="path3871-3"
         style="fill:#27ae60;fill-opacity:1;stroke:#2c3e50;stroke-width:16.11855698;stroke-miterlimit:4;stroke-opacity:1;stroke-dasharray:none"
         sodipodi:type="arc" />
      <path
         transform="matrix(0.82044986,0,0,0.82044986,136.71789,639.18799)"
         d="m 94.285713,208.07646 c 0,20.51344 -16.629423,37.14286 -37.142856,37.14286 C 36.629423,245.21932 20,228.5899 20,208.07646 c 0,-20.51343 16.629423,-37.14285 37.142857,-37.14285 20.513433,0 37.142856,16.62942 37.142856,37.14285 z"
         sodipodi:ry="37.142857"
         sodipodi:rx="37.142857"
         sodipodi:cy="208.07646"
         sodipodi:cx="57.142857"
         id="path3871-0"
         style="fill:#27ae60;fill-opacity:1;stroke:#2c3e50;stroke-width:16.11855698;stroke-miterlimit:4;stroke-opacity:1;stroke-dasharray:none"
         sodipodi:type="arc" />
      <path
         transform="matrix(0.82044986,0,0,0.82044986,136.71789,482.78873)"
         d="m 94.285713,208.07646 c 0,20.51344 -16.629423,37.14286 -37.142856,37.14286 C 36.629423,245.21932 20,228.5899 20,208.07646 c 0,-20.51343 16.629423,-37.14285 37.142857,-37.14285 20.513433,0 37.142856,16.62942 37.142856,37.14285 z"
         sodipodi:ry="37.142857"
         sodipodi:rx="37.142857"
         sodipodi:cy="208.07646"
         sodipodi:cx="57.142857"
         id="path3871-1"
         style="fill:#27ae60;fill-opacity:1;stroke:#2c3e50;stroke-width:16.11855698;stroke-miterlimit:4;stroke-opacity:1;stroke-dasharray:none"
         sodipodi:type="arc" />
    </g>
    <g
       id="g3028"
       transform="translate(-1.6902897e-6,3.0304576)">
      <path
         inkscape:connector-curvature="0"
         id="path3971"
         d="M 364.28571,602.07647 271.42857,877.7907"
         style="fill:none;stroke:#2c3e50;stroke-width:13.22399998;stroke-linecap:butt;stroke-linejoin:miter;stroke-miterlimit:4;stroke-opacity:1;stroke-dasharray:none" />
      <path
         inkscape:connector-curvature="0"
         id="path3973"
         d="M 464.28571,879.2193 362.85714,599.21933"
         style="fill:none;stroke:#2c3e50;stroke-width:13.22399998;stroke-linecap:butt;stroke-linejoin:miter;stroke-miterlimit:4;stroke-opacity:1;stroke-dasharray:none" />
      <path
         inkscape:connector-curvature="0"
         id="path3975"
         d="m 295.71429,810.07647 142.77376,-2.85714"
         style="fill:none;stroke:#2c3e50;stroke-width:13.49274921;stroke-linecap:butt;stroke-linejoin:miter;stroke-miterlimit:4;stroke-opacity:1;stroke-dasharray:none" />
      <path
         transform="matrix(0.82044986,0,0,0.82044986,223.11715,708.04514)"
         d="m 94.285713,208.07646 c 0,20.51344 -16.629423,37.14286 -37.142856,37.14286 C 36.629423,245.21932 20,228.5899 20,208.07646 c 0,-20.51343 16.629423,-37.14285 37.142857,-37.14285 20.513433,0 37.142856,16.62942 37.142856,37.14285 z"
         sodipodi:ry="37.142857"
         sodipodi:rx="37.142857"
         sodipodi:cy="208.07646"
         sodipodi:cx="57.142857"
         id="path3871-9"
         style="fill:#f1c40f;fill-opacity:1;stroke:#2c3e50;stroke-width:16.11855698;stroke-miterlimit:4;stroke-opacity:1;stroke-dasharray:none"
         sodipodi:type="arc" />
      <path
         transform="matrix(0.82044986,0,0,0.82044986,417.40287,708.04514)"
         d="m 94.285713,208.07646 c 0,20.51344 -16.629423,37.14286 -37.142856,37.14286 C 36.629423,245.21932 20,228.5899 20,208.07646 c 0,-20.51343 16.629423,-37.14285 37.142857,-37.14285 20.513433,0 37.142856,16.62942 37.142856,37.14285 z"
         sodipodi:ry="37.142857"
         sodipodi:rx="37.142857"
         sodipodi:cy="208.07646"
         sodipodi:cx="57.142857"
         id="path3871-07"
         style="fill:#f1c40f;fill-opacity:1;stroke:#2c3e50;stroke-width:16.11855698;stroke-miterlimit:4;stroke-opacity:1;stroke-dasharray:none"
         sodipodi:type="arc" />
      <path
         transform="matrix(0.82044986,0,0,0.82044986,315.9743,639.18799)"
         d="m 94.285713,208.07646 c 0,20.51344 -16.629423,37.14286 -37.142856,37.14286 C 36.629423,245.21932 20,228.5899 20,208.07646 c 0,-20.51343 16.629423,-37.14285 37.142857,-37.14285 20.513433,0 37.142856,16.62942 37.142856,37.14285 z"
         sodipodi:ry="37.142857"
         sodipodi:rx="37.142857"
         sodipodi:cy="208.07646"
         sodipodi:cx="57.142857"
         id="path3871-5"
         style="fill:#f1c40f;fill-opacity:1;stroke:#2c3e50;stroke-width:16.11855698;stroke-miterlimit:4;stroke-opacity:1;stroke-dasharray:none"
         sodipodi:type="arc" />
      <path
         transform="matrix(0.82044986,0,0,0.82044986,315.9743,431.75942)"
         d="m 94.285713,208.07646 c 0,20.51344 -16.629423,37.14286 -37.142856,37.14286 C 36.629423,245.21932 20,228.5899 20,208.07646 c 0,-20.51343 16.629423,-37.14285 37.142857,-37.14285 20.513433,0 37.142856,16.62942 37.142856,37.14285 z"
         sodipodi:ry="37.142857"
         sodipodi:rx="37.142857"
         sodipodi:cy="208.07646"
         sodipodi:cx="57.142857"
         id="path3871-2"
         style="fill:#f1c40f;fill-opacity:1;stroke:#2c3e50;stroke-width:16.11798668;stroke-miterlimit:4;stroke-opacity:1;stroke-dasharray:none"
         sodipodi:type="arc" />
    </g>
    <g
       id="g3037"
       transform="translate(-5.2986882e-6,3.0304576)">
      <path
         inkscape:connector-curvature="0"
         id="path3977"
         d="m 508.57143,604.93361 202.85714,-1.42857"
         style="fill:none;stroke:#2c3e50;stroke-width:13.22399998;stroke-linecap:butt;stroke-linejoin:miter;stroke-miterlimit:4;stroke-opacity:1;stroke-dasharray:none" />
      <path
         inkscape:connector-curvature="0"
         id="path3979"
         d="m 612.85714,877.7907 0,-272.85709"
         style="fill:none;stroke:#2c3e50;stroke-width:13.22399998;stroke-linecap:butt;stroke-linejoin:miter;stroke-miterlimit:4;stroke-opacity:1;stroke-dasharray:none" />
      <path
         transform="matrix(0.82044986,0,0,0.82044986,460.26001,431.75942)"
         d="m 94.285713,208.07646 c 0,20.51344 -16.629423,37.14286 -37.142856,37.14286 C 36.629423,245.21932 20,228.5899 20,208.07646 c 0,-20.51343 16.629423,-37.14285 37.142857,-37.14285 20.513433,0 37.142856,16.62942 37.142856,37.14285 z"
         sodipodi:ry="37.142857"
         sodipodi:rx="37.142857"
         sodipodi:cy="208.07646"
         sodipodi:cx="57.142857"
         id="path3871-8"
         style="fill:#c0392b;fill-opacity:1;stroke:#2c3e50;stroke-width:16.11855698;stroke-miterlimit:4;stroke-opacity:1;stroke-dasharray:none"
         sodipodi:type="arc" />
      <path
         transform="matrix(0.82044986,0,0,0.82044986,667.40287,431.75942)"
         d="m 94.285713,208.07646 c 0,20.51344 -16.629423,37.14286 -37.142856,37.14286 C 36.629423,245.21932 20,228.5899 20,208.07646 c 0,-20.51343 16.629423,-37.14285 37.142857,-37.14285 20.513433,0 37.142856,16.62942 37.142856,37.14285 z"
         sodipodi:ry="37.142857"
         sodipodi:rx="37.142857"
         sodipodi:cy="208.07646"
         sodipodi:cx="57.142857"
         id="path3871-87"
         style="fill:#c0392b;fill-opacity:1;stroke:#2c3e50;stroke-width:16.11855698;stroke-miterlimit:4;stroke-opacity:1;stroke-dasharray:none"
         sodipodi:type="arc" />
      <path
         transform="matrix(0.82044986,0,0,0.82044986,565.97429,708.04514)"
         d="m 94.285713,208.07646 c 0,20.51344 -16.629423,37.14286 -37.142856,37.14286 C 36.629423,245.21932 20,228.5899 20,208.07646 c 0,-20.51343 16.629423,-37.14285 37.142857,-37.14285 20.513433,0 37.142856,16.62942 37.142856,37.14285 z"
         sodipodi:ry="37.142857"
         sodipodi:rx="37.142857"
         sodipodi:cy="208.07646"
         sodipodi:cx="57.142857"
         id="path3871-39"
         style="fill:#c0392b;fill-opacity:1;stroke:#2c3e50;stroke-width:16.11855698;stroke-miterlimit:4;stroke-opacity:1;stroke-dasharray:none"
         sodipodi:type="arc" />
    </g>
    <text
       xml:space="preserve"
       style="font-size:40px;font-style:normal;font-weight:normal;line-height:125%;letter-spacing:0px;word-spacing:0px;fill:#2c3e50;fill-opacity:1;stroke:none;font-family:Sans"
       x="36.312599"
       y="978.18158"
       id="text3004"
       sodipodi:linespacing="125%"><tspan
         sodipodi:role="line"
         id="tspan3006"
         x="36.312599"
         y="978.18158"
         style="font-size:50px;font-style:normal;font-variant:normal;font-weight:normal;font-stretch:normal;fill:#2c3e50;font-family:Monaco;-inkscape-font-specification:Monaco">BUILD</tspan></text>
    <text
       xml:space="preserve"
       style="font-size:40px;font-style:normal;font-weight:normal;line-height:125%;letter-spacing:0px;word-spacing:0px;fill:#2c3e50;fill-opacity:1;stroke:none;font-family:Sans"
       x="239.37186"
       y="978.62103"
       id="text3008"
       sodipodi:linespacing="125%"><tspan
         sodipodi:role="line"
         id="tspan3010"
         x="239.37186"
         y="978.62103"
         style="font-size:50px;fill:#2c3e50">AWESOME</tspan></text>
    <text
       xml:space="preserve"
       style="font-size:40px;font-style:normal;font-weight:normal;line-height:125%;letter-spacing:0px;word-spacing:0px;fill:#2c3e50;fill-opacity:1;stroke:none;font-family:Sans"
       x="527.75531"
       y="978.62103"
       id="text3012"
       sodipodi:linespacing="125%"><tspan
         sodipodi:role="line"
         id="tspan3014"
         x="527.75531"
         y="978.62103"
         style="font-size:50px;fill:#2c3e50">TOOLS</tspan></text>
    <text
       xml:space="preserve"
       style="font-size:40px;font-style:normal;font-weight:normal;line-height:125%;letter-spacing:0px;word-spacing:0px;fill:#34495e;fill-opacity:1;stroke:none;font-family:Sans"
       x="35.355339"
       y="1022.0576"
       id="text4875"
       sodipodi:linespacing="125%"><tspan
         sodipodi:role="line"
         id="tspan4877"
         x="35.355339"
         y="1022.0576"
         style="font-style:normal;font-variant:normal;font-weight:normal;font-stretch:normal;font-family:Monaco;-inkscape-font-specification:Monaco;font-size:32.38999710000000221px;fill:#34495e">FOR DESKTOP USING WEB TECHNOLOGIES</tspan></text>
  </g>
</svg>
